<?xml version="1.0" standalone="no"?>
<!DOCTYPE svg PUBLIC "-//W3C//DTD SVG 20010904//EN"
 "http://www.w3.org/TR/2001/REC-SVG-20010904/DTD/svg10.dtd">
<svg version="1.0" xmlns="http://www.w3.org/2000/svg"
 width="512.000000pt" height="512.000000pt" viewBox="0 0 512.000000 512.000000"
 preserveAspectRatio="xMidYMid meet">
<metadata>
Created by potrace 1.14, written by Peter Selinger 2001-2017
</metadata>
<g transform="translate(0.000000,512.000000) scale(0.100000,-0.100000)"
fill="#000000" stroke="none">
<path d="M1890 4785 c-139 -26 -243 -63 -345 -120 -331 -185 -540 -527 -550
-900 -3 -132 7 -198 66 -444 28 -113 52 -213 54 -221 2 -8 10 -42 19 -76 8
-33 17 -69 19 -80 2 -10 14 -63 26 -116 l23 -97 -29 -38 c-77 -100 -160 -248
-217 -390 -35 -88 -89 -281 -100 -358 -15 -107 -19 -148 -20 -249 -6 -422 132
-814 399 -1135 83 -100 138 -148 211 -185 111 -56 82 -54 1099 -55 643 -1 959
2 1000 10 128 23 231 94 346 237 335 415 463 930 359 1444 -52 254 -157 487
-325 715 -15 20 -12 38 50 275 36 139 68 260 70 268 2 8 20 80 41 160 36 138
38 153 38 300 -1 135 -4 167 -27 252 -50 187 -146 356 -282 494 -168 172 -351
271 -570 309 -109 19 -1256 19 -1355 0z m1345 -161 c329 -63 612 -335 707
-681 17 -61 21 -107 22 -213 l0 -135 -83 -315 c-45 -173 -84 -323 -86 -333
-12 -58 -14 -58 -53 -21 -20 20 -74 65 -119 101 -46 35 -83 68 -83 73 0 4 12
63 26 131 14 68 28 134 30 147 3 13 16 76 31 140 42 187 37 332 -15 464 -40
100 -160 237 -259 294 -66 40 -161 72 -234 80 -85 10 -1026 11 -1109 2 -212
-25 -390 -148 -485 -336 -62 -124 -79 -228 -61 -367 7 -53 30 -145 105 -420
38 -138 42 -122 -51 -192 -46 -34 -105 -83 -131 -108 -27 -26 -51 -44 -54 -41
-5 5 -26 89 -112 446 -64 265 -69 297 -66 412 11 423 302 774 720 868 72 16
140 18 680 19 499 0 614 -2 680 -15z m-135 -428 c157 -18 303 -131 365 -284
39 -96 42 -184 11 -332 -3 -14 -22 -101 -41 -195 -48 -228 -39 -208 -79 -184
-100 59 -304 130 -466 163 -175 35 -438 40 -605 11 -160 -28 -332 -82 -460
-144 -48 -24 -78 -34 -81 -27 -4 10 -90 330 -98 366 -2 8 -9 35 -16 59 -12 45
-15 156 -6 199 43 202 204 348 406 370 84 9 985 7 1070 -2z m-365 -971 c269
-28 565 -149 800 -328 315 -241 536 -646 581 -1067 13 -120 7 -343 -11 -425
-3 -11 -7 -31 -9 -45 -20 -122 -79 -295 -139 -410 -38 -72 -95 -170 -107 -180
-3 -3 -24 -30 -46 -60 -53 -70 -127 -145 -173 -176 -84 -55 -58 -54 -1072 -54
-1028 0 -987 -2 -1078 61 -97 67 -246 266 -331 444 -108 225 -154 427 -154
675 0 153 8 235 39 365 123 521 503 945 1004 1119 224 78 460 106 696 81z"/>
<path d="M2527 2924 c-1 -1 -33 -5 -70 -8 -137 -12 -285 -55 -422 -123 -315
-158 -541 -428 -625 -748 -36 -138 -41 -174 -40 -305 0 -158 20 -271 72 -418
97 -277 254 -464 430 -512 57 -15 127 -17 713 -15 714 2 684 -1 779 64 121 84
263 294 325 483 70 211 76 483 17 703 -41 154 -110 296 -203 417 -170 223
-453 395 -728 442 -71 13 -241 26 -248 20z m154 -168 c210 -19 451 -137 612
-299 381 -383 393 -1058 26 -1425 -82 -82 -25 -77 -759 -77 -737 0 -682 -5
-762 78 -60 63 -151 206 -187 292 -59 141 -74 215 -77 385 -3 197 22 322 93
465 160 317 472 536 828 581 28 3 51 7 52 8 3 2 117 -3 174 -8z"/>
</g>
</svg>
